<svg data-v-423bf9ae="" xmlns="http://www.w3.org/2000/svg" viewBox="0 0 2336 1777" class="iconLeft"><!----><!----><!----><g data-v-423bf9ae="" id="b91461e5-5902-4ad5-894d-4ad8e61ff38f" fill="black" transform="matrix(5.3523639425355505,0,0,5.3523639425355505,1869.6770436450242,861.1754470445633)"><path d="M4.44 10.64C7.15 10.64 8.34 9.20 8.40 7.32L5.18 7.27C5.14 8.16 4.91 8.37 4.51 8.37C3.99 8.37 3.82 7.77 3.82 6.54C3.82 5.29 4.02 4.93 4.49 4.93C5.00 4.93 5.14 5.36 5.17 6.24L8.40 6.16C8.40 4.14 7.10 2.66 4.45 2.66C1.71 2.66 0.35 4.12 0.35 6.64C0.35 9.07 1.74 10.64 4.44 10.64ZM13.79 6.55C13.79 7.83 13.66 8.37 13.13 8.37C12.59 8.37 12.43 7.83 12.43 6.54C12.43 5.29 12.63 4.93 13.10 4.93C13.55 4.93 13.79 5.29 13.79 6.55ZM17.29 6.61C17.29 4.13 15.95 2.66 13.10 2.66C10.32 2.66 8.96 4.16 8.96 6.61C8.96 8.96 10.21 10.64 13.13 10.64C16.07 10.64 17.29 8.99 17.29 6.61ZM22.51 10.50L25.97 10.50L25.97 6.51C25.97 5.59 26.17 5.29 26.54 5.29C26.84 5.29 26.95 5.63 26.95 6.06L26.95 10.50L30.52 10.50L30.52 4.96C30.52 3.47 29.96 2.66 28.24 2.66C27.48 2.66 26.29 3.05 25.97 4.26C25.72 3.35 25.09 2.66 23.74 2.66C22.96 2.66 21.92 3.02 21.53 4.17C21.49 3.68 21.42 3.09 21.41 2.81L18.16 2.81C18.19 3.26 18.20 3.96 18.20 4.66L18.20 10.50L21.53 10.50L21.53 6.50C21.53 5.53 21.78 5.29 22.06 5.29C22.46 5.29 22.51 5.64 22.51 5.99ZM35.91 10.50L39.37 10.50L39.37 6.51C39.37 5.59 39.56 5.29 39.94 5.29C40.24 5.29 40.35 5.63 40.35 6.06L40.35 10.50L43.92 10.50L43.92 4.96C43.92 3.47 43.36 2.66 41.64 2.66C40.88 2.66 39.69 3.05 39.37 4.26C39.12 3.35 38.49 2.66 37.14 2.66C36.36 2.66 35.32 3.02 34.93 4.17C34.89 3.68 34.82 3.09 34.80 2.81L31.56 2.81C31.58 3.26 31.60 3.96 31.60 4.66L31.60 10.50L34.93 10.50L34.93 6.50C34.93 5.53 35.18 5.29 35.46 5.29C35.85 5.29 35.91 5.64 35.91 5.99ZM53.37 8.46L52.89 8.46C52.58 8.46 52.50 8.26 52.50 8.02L52.50 5.71C52.50 3.72 51.41 2.66 48.79 2.66C46.03 2.66 45.11 3.95 45.02 5.31L48.05 5.52C48.10 4.83 48.33 4.68 48.66 4.68C49 4.68 49.21 4.80 49.21 5.42L49.21 5.88L48.45 5.88C46.00 5.88 44.65 6.61 44.65 8.36C44.65 9.39 45.22 10.64 47.19 10.64C48.37 10.64 49.21 10.18 49.49 9.21C49.64 10.26 50.43 10.64 51.66 10.64C52.30 10.64 52.82 10.61 53.37 10.57ZM49.22 7.73C49.22 8.27 49.03 8.58 48.54 8.58C48.12 8.58 47.91 8.29 47.91 7.94C47.91 7.55 48.15 7.27 48.73 7.27L49.21 7.27ZM58.55 10.50L61.98 10.50L61.98 5.15C61.98 3.88 61.54 2.66 59.67 2.66C58.77 2.66 57.83 3.00 57.43 4.30L57.26 2.81L53.96 2.81C53.96 2.81 54.01 3.99 54.01 4.84L54.01 10.50L57.44 10.50L57.44 6.34C57.44 5.84 57.58 5.29 58.10 5.29C58.46 5.29 58.55 5.54 58.55 6.10ZM65.65 10.64C66.88 10.64 67.52 10.07 67.73 9.27L67.84 10.50L71.19 10.50C71.16 10.02 71.13 9.11 71.13 8.69L71.13-0.57L67.65-0.57L67.65 2.52L67.65 3.78C67.40 3.21 66.75 2.66 65.66 2.66C63.77 2.66 62.85 3.86 62.85 6.57C62.85 8.40 63.11 10.64 65.65 10.64ZM66.99 8.36C66.51 8.36 66.35 7.91 66.35 6.57C66.35 5.25 66.57 4.94 66.99 4.94C67.55 4.94 67.66 5.60 67.66 6.59C67.66 7.94 67.45 8.36 66.99 8.36ZM76.23 10.64C79.07 10.64 79.95 9.21 80.15 7.90L76.87 7.74C76.85 8.30 76.64 8.62 76.20 8.62C75.77 8.62 75.56 8.23 75.56 7.45L75.56 7.27L80.21 7.27C80.21 7.27 80.23 6.90 80.23 6.44C80.23 4.20 78.81 2.66 76.19 2.66C73.98 2.66 72.10 3.75 72.10 6.64C72.10 8.61 73.02 10.64 76.23 10.64ZM75.56 5.63C75.56 4.73 75.84 4.54 76.19 4.54C76.55 4.54 76.83 4.69 76.83 5.66L76.83 5.78L75.56 5.78ZM87.02 5.56L87.02 2.66L86.62 2.66C85.23 2.66 84.50 3.40 84.34 4.70C84.28 3.98 84.21 3.28 84.15 2.81L81.16 2.81C81.19 3.32 81.21 4.26 81.21 4.75L81.21 10.50L84.77 10.50L84.77 7.14C84.77 5.98 85.50 5.53 86.60 5.53C86.60 5.53 86.81 5.53 87.02 5.56Z"></path></g><!----><g data-v-423bf9ae="" id="4b136777-f3fe-4cc9-bc25-7c2b17797f48" transform="matrix(4.442533365885416,0,0,4.442533365885416,-210.67765854593972,-248.2025431315103)" stroke="none" fill="black"><path d="M148.202 291.203H110.73v30.737H85.083v-30.737H47.611v100.592h100.591zM426.917 321.94H401.27v-30.737h-37.472v100.592h100.591V291.203h-37.472zM205.706 291.203v100.592h100.591V291.203h-37.473v30.737h-25.647v-30.737zM218.783 156.324v30.816l-5.311 2.484c-24.547 11.486-39.536 37.35-37.297 64.358l1.104 13.323 25.56-2.118-1.104-13.324c-1.357-16.371 7.728-32.047 22.606-39.009l15.275-7.146 1.497-.365L256 213.622l14.887-8.278 1.498.365 15.274 7.146c14.878 6.962 23.964 22.639 22.607 39.009l-1.104 13.324 25.561 2.118 1.104-13.323c2.238-27.009-12.751-52.873-37.299-64.358l-5.31-2.484V95.859h10.434V56.086H208.35v39.773h10.433v60.465zm21.373-60.465h31.689v60.464h-31.689V95.859zM432.328 430.266H400.27v-12.824h-32.061v12.824h-32.06v-12.824H304.09v12.824h-32.061v-12.824H239.97v12.824h-32.06v-12.824h-32.059v12.824h-32.06v-12.824h-32.06v12.824h-32.06v-12.824h-32.06v38.472h416.778v-38.472h-32.061z"></path></g><!----></svg>